# xmcd
#
# Track frame offsets:
#       150
#       13604
#       31594
#       48143
#       58941
#       74349
#       87156
#       100254
#       115450
#       128731
#       148126
#       161978
#       177000
#       194713
#
# Disc length: 2666 seconds
#
# Revision: 0
# Processed by: cddbd v1.5.1PL0 Copyright (c) Steve Scherf et al.
# Submitted via: CD-DA_X-Tractor v0.24
#
DISCID=c50a680e
DTITLE=Dolores Dagenais - Mona Lisa's Secret
DYEAR=2004
DGENRE=
TTITLE0=Mona Lisa's Secret
TTITLE1=Decades
TTITLE2=Prayers
TTITLE3=Indigo Blue
TTITLE4=Patch of Blue
TTITLE5=While You Were Sleeping
TTITLE6=Red Sparrow
TTITLE7=Gypsy Heels
TTITLE8=Maybe Someday
TTITLE9=Small World
TTITLE10=Walkerton Song
TTITLE11=Sleep
TTITLE12=Sand of Time
TTITLE13=It's Only Love
EXTD=
EXTT0=
EXTT1=
EXTT2=
EXTT3=
EXTT4=
EXTT5=
EXTT6=
EXTT7=
EXTT8=
EXTT9=
EXTT10=
EXTT11=
EXTT12=
EXTT13=
PLAYORDER=
